<svg xmlns="http://www.w3.org/2000/svg" viewBox="0 0 1280 300" role="img" aria-label="Hoshi — ad astra per aspera">
  <rect width="1280" height="300" fill="#0c1017" rx="8"/>
  <g fill="#e8eef7">
    <circle cx="96" cy="52" r="1.4" opacity="0.55"/><circle cx="212" cy="118" r="1" opacity="0.3"/>
    <circle cx="318" cy="64" r="1.8" opacity="0.7"/><circle cx="404" cy="180" r="1" opacity="0.28"/>
    <circle cx="150" cy="228" r="1.3" opacity="0.4"/><circle cx="520" cy="90" r="1.2" opacity="0.35"/>
    <circle cx="588" cy="212" r="1" opacity="0.3"/><circle cx="760" cy="60" r="1.5" opacity="0.5"/>
    <circle cx="852" cy="150" r="1" opacity="0.3"/><circle cx="948" cy="84" r="1.7" opacity="0.65"/>
    <circle cx="1040" cy="196" r="1.2" opacity="0.35"/><circle cx="1128" cy="70" r="1.3" opacity="0.45"/>
    <circle cx="1204" cy="150" r="1" opacity="0.3"/><circle cx="1236" cy="236" r="1.5" opacity="0.5"/>
    <circle cx="60" cy="150" r="1" opacity="0.3"/><circle cx="680" cy="256" r="1.1" opacity="0.3"/>
    <circle cx="890" cy="248" r="1.4" opacity="0.4"/>
  </g>
  <line x1="1010" y1="34" x2="810" y2="104" stroke="#5ea0f2" stroke-width="1.6" opacity="0.5" stroke-linecap="round"/>
  <circle cx="806" cy="105" r="2.6" fill="#8fbcf6"/>
  <text x="640" y="138" text-anchor="middle" fill="#e8eef7" font-size="72" font-family="'Hiragino Mincho ProN','Yu Mincho','Noto Serif JP',serif">星</text>
  <text x="640" y="185" text-anchor="middle" fill="#8c97ab" font-size="20" letter-spacing="14" font-family="-apple-system,'Segoe UI',Helvetica,Arial,sans-serif">HOSHI</text>
  <line x1="560" y1="208" x2="720" y2="208" stroke="#2a3548" stroke-width="1"/>
  <text x="640" y="242" text-anchor="middle" fill="#5ea0f2" font-size="17" letter-spacing="7" font-family="-apple-system,'Segoe UI',Helvetica,Arial,sans-serif">AD ASTRA PER ASPERA</text>
</svg>
